<svg xmlns="http://www.w3.org/2000/svg" viewBox="0 0 407.14 64"><defs><style>.cls-1{fill:#231f20;}</style></defs><title>psp-text</title><g id="Layer_2" data-name="Layer 2"><g id="Layer_1-2" data-name="Layer 1"><path class="cls-1" d="M171.81,32.84a20.27,20.27,0,0,0-3.37-12.68A13.62,13.62,0,0,0,159.17,14a16.63,16.63,0,0,0-6.13.16,13,13,0,0,0-9,6c-.07.12-.11.34-.38.28-.24-.27-.12-.62-.13-.94,0-1.33,0-2.66,0-4,0-.94,0-1-.9-1-3.13,0-6.26,0-9.39,0-.63,0-1,.14-.89.86a6.59,6.59,0,0,1,0,.77V62.38c0,.3,0,.6,0,.9,0,.58.25.72.77.72H143.9c.39,0,.52-.22.52-.57s0-.6,0-.9V45.21c.44,0,.49.29.62.48a10.72,10.72,0,0,0,4.78,3.77,15.91,15.91,0,0,0,9,.83c5.27-.94,8.85-4.07,11.06-8.85a23,23,0,0,0,2-8.6m-14,4.94A6.62,6.62,0,0,1,147,39.11a9.93,9.93,0,0,1-2.6-6.85,11.64,11.64,0,0,1,1.32-5.39,6.72,6.72,0,0,1,6.39-3.76,6.49,6.49,0,0,1,6.07,4,11.42,11.42,0,0,1-.39,10.63"/><path class="cls-1" d="M34.82,11.25c-1.47-3.56-4.38-5.61-7.91-6.86a30.17,30.17,0,0,0-10-1.6c-5.23,0-10.46,0-15.69,0C-.14,2.74,0,2.68,0,4V48.62c0,1.21,0,1.22,1.17,1.22H11.45a2.25,2.25,0,0,1,.26,0c.63.07,1-.13.9-.84a6.77,6.77,0,0,1,0-.78V34.72c0-1.48-.16-1.34,1.4-1.35,2.23,0,4.46.05,6.68-.18a21.5,21.5,0,0,0,8.23-2.33,12.66,12.66,0,0,0,6-6.46,16.9,16.9,0,0,0-.11-13.15M22.63,21.62a5.52,5.52,0,0,1-3,2.28,13.05,13.05,0,0,1-4.69.55c-.72,0-1.62.3-2.11-.13s-.19-1.45-.21-2.2c0-1.37,0-2.74,0-4.11,0-1.84,0-3.68,0-5.52,0-.64.15-.92.86-.89a39.31,39.31,0,0,1,4.73.21,6.35,6.35,0,0,1,4.44,9.81"/><path class="cls-1" d="M60.67,50.32a32.32,32.32,0,0,0,6.88-1.54c1.1-.38,1.11-.39,1.11-1.52,0-2.1,0-4.2,0-6.3,0-.32.11-.67-.09-1-.08,0-.12-.07-.15,0a6.19,6.19,0,0,0-.6.23,22.66,22.66,0,0,1-11.34,2.24,12.54,12.54,0,0,1-5.21-1.24,6.67,6.67,0,0,1-3.66-5.41h1.59c6.73,0,13.46,0,20.19,0,.79,0,1.82.38,2.33-.2s.15-1.56.15-2.36a24.62,24.62,0,0,0-1.77-9.67,14.71,14.71,0,0,0-10.8-9.19,22.62,22.62,0,0,0-12.42.56A15.61,15.61,0,0,0,37,23.84a20.1,20.1,0,0,0-.5,15.05c2.06,5.73,6.39,9.06,12.09,10.75a30.35,30.35,0,0,0,12.11.68M48.43,25c1.36-2.68,3.91-3.85,7.26-3.34a5.86,5.86,0,0,1,5,5.13c.38,2.47.57,2.06-1.72,2.07-3.39,0-6.77,0-10.16,0a3.51,3.51,0,0,1-1.37-.12,9.67,9.67,0,0,1,1-3.75"/><path class="cls-1" d="M197.79,14.46a22.49,22.49,0,0,0-12.31.26,16.09,16.09,0,0,0-11.16,10.81,20,20,0,0,0-1,5.69c-.18,5.38,1.26,10.17,5.25,14a18.82,18.82,0,0,0,8,4.44,31,31,0,0,0,12.12.66,34.43,34.43,0,0,0,7-1.58,1.19,1.19,0,0,0,.95-1.38c0-2.14,0-4.29,0-6.43a2,2,0,0,0-.07-.93c-.12,0-.17-.05-.2,0l-.48.19a22.72,22.72,0,0,1-11.46,2.29,12.29,12.29,0,0,1-5.32-1.31,6.54,6.54,0,0,1-3.5-5.2,3.13,3.13,0,0,1,1.44-.13H208.3c.3,0,.61,0,.9,0,.49,0,.7-.16.71-.66.06-4.32-.31-8.57-2.23-12.53a14.52,14.52,0,0,0-9.89-8.13m.6,14.37H186.84a3.28,3.28,0,0,1-1.25-.09,6.74,6.74,0,0,1,4.61-6.94,7.55,7.55,0,0,1,5.15.32,6.64,6.64,0,0,1,3.59,6.2c0,.39-.2.51-.55.51"/><path class="cls-1" d="M328.19,34.64a16.5,16.5,0,0,0,6.65,11.86,19.9,19.9,0,0,0,7.55,3.42,32,32,0,0,0,11,.4,31.27,31.27,0,0,0,6.88-1.54c1.25-.45,1.09-.32,1.1-1.52q0-3.15,0-6.3a1.65,1.65,0,0,0-.1-1c-.29-.1-.51.1-.72.21a22.76,22.76,0,0,1-11.48,2.24,12.71,12.71,0,0,1-5-1.18,6.66,6.66,0,0,1-3.78-5.47H363c.29,0,.6,0,.9,0,.55,0,.74-.19.75-.74a30,30,0,0,0-1.48-10.63c-1.88-5.15-5.37-8.61-10.73-10a22.49,22.49,0,0,0-12.07.23,16.15,16.15,0,0,0-11.57,11.68,21.48,21.48,0,0,0-.59,8.29M345,21.78a7.54,7.54,0,0,1,5,.31,6.64,6.64,0,0,1,3.66,6.28c-.07.53-.41.46-.73.46H341c-.37,0-.75.08-.76-.55a7,7,0,0,1,4.75-6.5"/><path class="cls-1" d="M316.18,49.86a1.24,1.24,0,0,0,1.37-1q6.13-16.71,12.31-33.38c.1-.26.31-.53.05-.91H319.29c-1.37,0-1.2-.05-1.55,1.17L312.43,34c-.52,1.81-1.06,3.62-1.63,5.53a4.37,4.37,0,0,1-.65-1.69q-3.24-11.1-6.45-22.2c-.3-1.05-.31-1.06-1.38-1.06H291.39a1.82,1.82,0,0,0-1,.16c.14.38.25.7.36,1l3.95,10.73q4.11,11.15,8.23,22.29c.39,1.06.2,1.06,1.42,1.06,3.94,0,7.88,0,11.83,0"/><path class="cls-1" d="M271.08,42.14a14.65,14.65,0,0,1-3.44.32,3.93,3.93,0,0,1-4.07-3.54,14.52,14.52,0,0,1-.25-2.56c0-4.07,0-8.14,0-12.21,0-1,0-1.07,1-1.07h6.31c1.15,0,1.15,0,1.16-1.08,0-2.14,0-4.29,0-6.43,0-1,0-1-1-1h-6.3c-1.2,0-1.21,0-1.21-1.17,0-2.19,0-4.37,0-6.56V3.09a3.12,3.12,0,0,0-.46,0c-3.56,1.11-7.11,2.23-10.67,3.31a.94.94,0,0,0-.77,1.1c0,1.68,0,3.35,0,5,0,2.06,0,2.06-2,2.06-1.46,0-2.91,0-4.37,0-.59,0-.84.15-.83.8,0,2.27,0,4.54,0,6.81,0,.87,0,.88,1,.89h5c1,0,1,0,1,1,0,4.37,0,8.74,0,13.11a35.15,35.15,0,0,0,.25,4.11c.6,4.84,3.15,7.75,7.87,8.78,4.13.91,8.27.51,12.4-.1.53-.08.59-.36.57-.79-.12-2.14-.23-4.28-.31-6.42,0-.67-.32-.74-.91-.63"/><path class="cls-1" d="M370.58,33.56a24.89,24.89,0,0,0,4.58,1.68c1.52.43,3,.84,4.57,1.3a5.76,5.76,0,0,1,2.15,1.12,2.51,2.51,0,0,1-.73,4.36,6.76,6.76,0,0,1-2.26.43,28.91,28.91,0,0,1-11.08-1.91,2.22,2.22,0,0,0-1.28-.32c-.19,2.52-.39,5-.56,7.55-.08,1.15-.06,1.15,1,1.48a39.22,39.22,0,0,0,10.16,1.35,28.68,28.68,0,0,0,10-1.22c4.62-1.57,7.42-4.63,7.72-9.66.29-4.86-1.64-8-5.62-9.9a25.56,25.56,0,0,0-4.49-1.53c-1.66-.42-3.33-.83-5-1.28a5.11,5.11,0,0,1-2.16-1.1,1.91,1.91,0,0,1,.37-3.22,6.07,6.07,0,0,1,1.82-.59,17.85,17.85,0,0,1,6.27.14,19.14,19.14,0,0,1,5.8,2c.29-2.69.56-5.23.86-7.78a.76.76,0,0,0-.62-.93c-.37-.11-.73-.25-1.1-.36A34.38,34.38,0,0,0,378,13.94a16.29,16.29,0,0,0-7.05,2.22,10,10,0,0,0-5.31,8.69c-.12,3.91,1.4,6.89,5,8.71"/><path class="cls-1" d="M105.57,33.42A19.46,19.46,0,0,0,109.63,35c1.72.49,3.46,1,5.18,1.47a6,6,0,0,1,2.38,1.24,2.49,2.49,0,0,1-.73,4.28,6.69,6.69,0,0,1-2.26.45,27,27,0,0,1-6.89-.65,43.33,43.33,0,0,1-5.51-1.71c-.2,2.48-.41,4.78-.56,7.09-.14,2.1-.35,1.71,1.55,2.2a42.88,42.88,0,0,0,15.18,1,17.64,17.64,0,0,0,7.09-2.14,9.55,9.55,0,0,0,4.35-4.9,12.18,12.18,0,0,0,.41-7.57,9,9,0,0,0-5.39-6,28.07,28.07,0,0,0-5.38-1.71,38,38,0,0,1-4.45-1.21,4.38,4.38,0,0,1-1.85-1.13,1.82,1.82,0,0,1,.44-2.95,5.44,5.44,0,0,1,1.93-.65,17.62,17.62,0,0,1,6.27.13,19,19,0,0,1,5.78,2c.32-2.76.62-5.4.93-8a.5.5,0,0,0-.41-.56c-.45-.15-.88-.33-1.33-.46a34.74,34.74,0,0,0-13.1-1.25,16.45,16.45,0,0,0-6.72,2c-3.87,2.15-5.86,5.39-5.66,9.88a8.5,8.5,0,0,0,4.69,7.59"/><path class="cls-1" d="M221.93,48.45a23.27,23.27,0,0,0,9.47,2.11,33.75,33.75,0,0,0,10-1.26.91.91,0,0,0,.78-1.08c-.1-1.84-.13-3.69-.19-5.53,0-.84-.07-1.67-.1-2.47a1.35,1.35,0,0,0-1,.23,16.62,16.62,0,0,1-7.3,1.2c-5-.3-9.75-4-9.23-10.33a8.92,8.92,0,0,1,7.73-8.5A13.24,13.24,0,0,1,239.8,24a3.3,3.3,0,0,0,1.29.52c.27-2.67.51-5.27.82-7.87a1,1,0,0,0-.84-1.31c-.29-.08-.56-.23-.85-.31a25.87,25.87,0,0,0-16.18.1c-5.83,1.93-9.84,5.75-11.55,11.78a19,19,0,0,0-.66,6.36c.39,7,3.69,12.17,10.1,15.21"/><path class="cls-1" d="M91.6,24.61a9.6,9.6,0,0,1,3.63-.69,18.48,18.48,0,0,1,4,.36,16.89,16.89,0,0,0,.26-3c.17-2.1.26-4.19.41-6.29,0-.58-.11-.83-.73-.92-.9-.13-1.79-.19-2.69-.24a10.27,10.27,0,0,0-10.08,5.35c-.3.5-.6,1-.89,1.53l-.24-.08v-5c0-1,0-1-1-1H75.16c-1,0-1,0-1,1q0,16.59,0,33.17c0,1,0,1,1.09,1h7.07c1.07,0,2.15,0,3.22,0,.55,0,.78-.21.74-.76,0-.3,0-.6,0-.9,0-4.37,0-8.74,0-13.11a15,15,0,0,1,1.19-6.39,7.7,7.7,0,0,1,4.09-4.08"/><path class="cls-1" d="M287.82,48.71V15.65c0-1.05,0-1.06-1-1.07H276.36c-.42,0-.65.16-.64.6s0,.6,0,.9V32.16q0,8.3,0,16.59c0,1.07,0,1.08,1,1.09h9.91c1.11,0,1.13,0,1.13-1.13"/><path class="cls-1" d="M276.5,8.93q5.26,0,10.53,0c.63,0,.8-.25.8-.83,0-2.4,0-4.8,0-7.19,0-.88,0-.89-.95-.9h-5c-1.76,0-3.51,0-5.26,0-.55,0-.89.07-.88.75,0,2.49,0,5,0,7.45,0,.58.26.73.78.73"/><path class="cls-1" d="M401.41,20c0,.22,0,.43,0,.64s.07.34.28.36.39-.15.41-.38a6.52,6.52,0,0,0,0-.77V17.34c.46.11.46.41.55.62.36.87.68,1.75,1,2.63.1.25.22.47.54.46a.6.6,0,0,0,.55-.46c.25-.64.48-1.28.74-1.91a3.58,3.58,0,0,1,.83-1.6c0,1.19,0,2.22,0,3.25,0,.27-.09.66.35.69s.41-.35.41-.63c0-1.33,0-2.66,0-4,0-.31,0-.63-.43-.65s-.71-.1-.9.3c-.11.23-.19.48-.28.71-.39,1-.76,2-1.27,3.29-.55-1.44-1-2.59-1.43-3.76-.18-.54-.56-.59-1-.54s-.41.48-.41.8c0,1.15,0,2.31,0,3.46"/><path class="cls-1" d="M398.2,17.51c0,1,0,2,0,3.07,0,.28.13.49.46.45s.29-.29.29-.48c0-.9,0-1.8,0-2.69,0-.42-.17-.9.13-1.24s.72-.1,1.09-.15.44-.1.42-.37a.42.42,0,0,0-.46-.35H397a.34.34,0,0,0-.34.31c0,.27.13.37.37.39h.26c.92.11.93.11.94,1"/></g></g></svg>